<?xml version="1.0" encoding="utf-8"?>
<!-- Generator: Adobe Illustrator 23.0.1, SVG Export Plug-In . SVG Version: 6.00 Build 0)  -->
<svg version="1.1" id="Layer_1" xmlns="http://www.w3.org/2000/svg" xmlns:xlink="http://www.w3.org/1999/xlink" x="0px" y="0px"
	 viewBox="0 0 50 33.4" style="enable-background:new 0 0 50 33.4;" xml:space="preserve">
<style type="text/css">
	.st0{fill:#F08BB5;}
</style>
<g>
	<path class="st0" d="M20.5,29.7h-8.9c-1.9,0-3.7-0.6-5.2-1.8c-1.4-1.1-2.3-2.4-2.8-4c0,0,0,0,0-0.1c0-0.2,0.2-0.4,0.4-0.5h18.6
		c0.2,0,0.4-0.2,0.4-0.4v-0.1c0-0.4,0.1-0.7,0.1-1.1c0-3.1-1.1-5.7-3.4-7.9s-5-3.2-8.2-3.2h-9c-0.1,0-0.2,0-0.4,0
		c-0.9,0-1.7-0.2-2.3-0.5v0.5v1.8c0,0.7,1.2,1.3,2.8,1.4h8.8c2,0,3.7,0.6,5.2,1.8c1.4,1.1,2.3,2.4,2.7,4.1c0,0,0,0,0,0.1
		c0,0.3-0.2,0.5-0.5,0.5l0,0H0.5c-0.2,0-0.4,0.2-0.5,0.4l0,0c0,0.2,0,0.6,0,1.1c0,3.1,1.1,5.7,3.4,7.9s5,3.3,8.2,3.3h8.9
		c0,0,0,0,0.1,0c1,0,2,0.2,2.6,0.5V33v-1.8C23.2,30.3,22,29.8,20.5,29.7"/>
	<path class="st0" d="M49.6,31L49.6,31v-0.8c0-4.1-1.8-7.2-5.2-9.3c-0.4-0.2-0.7-0.3-0.7-0.3c0.2,0,0.6-0.2,0.8-0.3
		c2.4-1.6,4-3.6,4.7-6.1c0-0.2,0.1-0.3,0.1-0.5c0.3-1.3,0-2.4-0.7-2.6h-0.1h-2.4c0.1,0.5,0.1,1,0.1,1.6c-0.3,1.5-1.1,2.9-2.3,4
		C42.3,18.2,40.3,19,38,19c-3,0-5.5,0.9-7.7,2.8c-0.6,0.5-0.6,0.9-0.6,0.9V22l0,0V2.6c0-1.4-0.6-2.5-1.4-2.6h-2.5
		c0.3,0.5,0.5,1.4,0.5,2.3c0,0.1,0,0.2,0,0.3v28.2v0.1c0,1-0.2,1.8-0.5,2.4h2.4c0.7,0,1.3-1.2,1.4-2.7v-0.5c0-2.2,0.8-4.1,2.4-5.6
		c1.6-1.6,3.6-2.3,5.9-2.3s4.3,0.8,5.9,2.3c1.6,1.5,2.4,3.4,2.4,5.7v0.7c0.1,1.3,0.6,2.4,1.3,2.5H50C49.7,32.8,49.6,31.9,49.6,31"/>
</g>
</svg>
